<svg xmlns="http://www.w3.org/2000/svg" viewBox="0 0 1600 1200">
  <defs>
    <linearGradient id="bg" x1="0" y1="0" x2="1" y2="1">
      <stop offset="0" stop-color="#0d0d10"/>
      <stop offset="1" stop-color="#050506"/>
    </linearGradient>
  </defs>
  <rect width="1600" height="1200" fill="url(#bg)"/>
  <g fill="none" stroke="#ffffff" stroke-opacity="0.28" stroke-width="2">
    <rect x="380" y="330" width="80" height="56" rx="10"/><rect x="495" y="330" width="80" height="56" rx="10"/><rect x="610" y="330" width="80" height="56" rx="10"/><rect x="725" y="330" width="80" height="56" rx="10"/><rect x="840" y="330" width="80" height="56" rx="10"/><rect x="955" y="330" width="80" height="56" rx="10"/><rect x="1070" y="330" width="80" height="56" rx="10"/><rect x="1185" y="330" width="80" height="56" rx="10"/>
    <rect x="380" y="420" width="80" height="56" rx="10"/><rect x="495" y="420" width="80" height="56" rx="10"/><rect x="610" y="420" width="80" height="56" rx="10" stroke-opacity="0.6"/><rect x="725" y="420" width="80" height="56" rx="10"/><rect x="840" y="420" width="80" height="56" rx="10"/><rect x="955" y="420" width="80" height="56" rx="10"/><rect x="1070" y="420" width="80" height="56" rx="10"/><rect x="1185" y="420" width="80" height="56" rx="10"/>
    <rect x="380" y="510" width="80" height="56" rx="10"/><rect x="495" y="510" width="80" height="56" rx="10"/><rect x="610" y="510" width="80" height="56" rx="10"/><rect x="725" y="510" width="80" height="56" rx="10"/><rect x="840" y="510" width="80" height="56" rx="10" stroke-opacity="0.6"/><rect x="955" y="510" width="80" height="56" rx="10"/><rect x="1070" y="510" width="80" height="56" rx="10"/><rect x="1185" y="510" width="80" height="56" rx="10"/>
    <rect x="380" y="600" width="80" height="56" rx="10"/><rect x="495" y="600" width="80" height="56" rx="10"/><rect x="610" y="600" width="80" height="56" rx="10"/><rect x="725" y="600" width="80" height="56" rx="10"/><rect x="840" y="600" width="80" height="56" rx="10"/><rect x="955" y="600" width="80" height="56" rx="10"/><rect x="1070" y="600" width="80" height="56" rx="10"/><rect x="1185" y="600" width="80" height="56" rx="10"/>
    <rect x="560" y="690" width="480" height="56" rx="10" stroke-opacity="0.45"/>
  </g>
  <text x="90" y="150" font-family="Verdana, sans-serif" font-size="17" letter-spacing="7" fill="#7a7a82">LAPTOPS / SERIES 02</text>
  <text x="90" y="1100" font-family="Verdana, sans-serif" font-size="42" letter-spacing="16" fill="#ffffff" fill-opacity="0.9">LATIOS</text>
</svg>
